<mxfile host="app.diagrams.net" modified="2024-04-29T08:18:41.444Z" agent="Mozilla/5.0 (Windows NT 10.0; Win64; x64) AppleWebKit/537.36 (KHTML, like Gecko) Chrome/124.0.0.0 Safari/537.36" etag="rMEvMILRHpiL0OBFxJie" version="24.2.7" type="device">
  <diagram name="페이지-1" id="WWmK2mgtXMB2TsY04g74">
    <mxGraphModel dx="2514" dy="831" grid="1" gridSize="10" guides="1" tooltips="1" connect="1" arrows="1" fold="1" page="1" pageScale="1" pageWidth="827" pageHeight="1169" math="0" shadow="0">
      <root>
        <mxCell id="0" />
        <mxCell id="1" parent="0" />
        <mxCell id="lhYpRNcE0l-zWbSrkpPp-6" value="DATA_PIPELINE" style="swimlane;fontStyle=1;align=center;verticalAlign=top;childLayout=stackLayout;horizontal=1;startSize=26;horizontalStack=0;resizeParent=1;resizeParentMax=0;resizeLast=0;collapsible=1;marginBottom=0;whiteSpace=wrap;html=1;" parent="1" vertex="1">
          <mxGeometry x="-40" y="220" width="360" height="120" as="geometry" />
        </mxCell>
        <mxCell id="lhYpRNcE0l-zWbSrkpPp-7" value="&lt;div&gt;+ gpt_model_name: String&lt;/div&gt;&lt;div&gt;+ context: String&lt;/div&gt;&lt;div&gt;&lt;br&gt;&lt;/div&gt;" style="text;strokeColor=none;fillColor=none;align=left;verticalAlign=top;spacingLeft=4;spacingRight=4;overflow=hidden;rotatable=0;points=[[0,0.5],[1,0.5]];portConstraint=eastwest;whiteSpace=wrap;html=1;" parent="lhYpRNcE0l-zWbSrkpPp-6" vertex="1">
          <mxGeometry y="26" width="360" height="44" as="geometry" />
        </mxCell>
        <mxCell id="lhYpRNcE0l-zWbSrkpPp-38" value="" style="endArrow=classic;html=1;rounded=0;curved=0;exitX=1;exitY=0.5;exitDx=0;exitDy=0;" parent="lhYpRNcE0l-zWbSrkpPp-6" source="lhYpRNcE0l-zWbSrkpPp-33" edge="1">
          <mxGeometry width="50" height="50" relative="1" as="geometry">
            <mxPoint x="300" y="360" as="sourcePoint" />
            <mxPoint y="50" as="targetPoint" />
            <Array as="points">
              <mxPoint x="-30" y="305" />
              <mxPoint x="-30" y="50" />
            </Array>
          </mxGeometry>
        </mxCell>
        <mxCell id="lhYpRNcE0l-zWbSrkpPp-8" value="" style="line;strokeWidth=1;fillColor=none;align=left;verticalAlign=middle;spacingTop=-1;spacingLeft=3;spacingRight=3;rotatable=0;labelPosition=right;points=[];portConstraint=eastwest;strokeColor=inherit;" parent="lhYpRNcE0l-zWbSrkpPp-6" vertex="1">
          <mxGeometry y="70" width="360" height="8" as="geometry" />
        </mxCell>
        <mxCell id="lhYpRNcE0l-zWbSrkpPp-9" value="&lt;div&gt;+ report_summary(report : dictionary): text(String, LLM 요약 내용)&lt;/div&gt;+ report_embedding(data : String): void" style="text;strokeColor=none;fillColor=none;align=left;verticalAlign=top;spacingLeft=4;spacingRight=4;overflow=hidden;rotatable=0;points=[[0,0.5],[1,0.5]];portConstraint=eastwest;whiteSpace=wrap;html=1;" parent="lhYpRNcE0l-zWbSrkpPp-6" vertex="1">
          <mxGeometry y="78" width="360" height="42" as="geometry" />
        </mxCell>
        <mxCell id="lhYpRNcE0l-zWbSrkpPp-10" value="DART" style="swimlane;fontStyle=1;align=center;verticalAlign=top;childLayout=stackLayout;horizontal=1;startSize=26;horizontalStack=0;resizeParent=1;resizeParentMax=0;resizeLast=0;collapsible=1;marginBottom=0;whiteSpace=wrap;html=1;" parent="1" vertex="1">
          <mxGeometry x="400" y="160" width="550" height="150" as="geometry" />
        </mxCell>
        <mxCell id="lhYpRNcE0l-zWbSrkpPp-11" value="+ item_list: list(가져올 사업보고서 목차들)" style="text;strokeColor=none;fillColor=none;align=left;verticalAlign=top;spacingLeft=4;spacingRight=4;overflow=hidden;rotatable=0;points=[[0,0.5],[1,0.5]];portConstraint=eastwest;whiteSpace=wrap;html=1;" parent="lhYpRNcE0l-zWbSrkpPp-10" vertex="1">
          <mxGeometry y="26" width="550" height="24" as="geometry" />
        </mxCell>
        <mxCell id="lhYpRNcE0l-zWbSrkpPp-12" value="" style="line;strokeWidth=1;fillColor=none;align=left;verticalAlign=middle;spacingTop=-1;spacingLeft=3;spacingRight=3;rotatable=0;labelPosition=right;points=[];portConstraint=eastwest;strokeColor=inherit;" parent="lhYpRNcE0l-zWbSrkpPp-10" vertex="1">
          <mxGeometry y="50" width="550" height="8" as="geometry" />
        </mxCell>
        <mxCell id="lhYpRNcE0l-zWbSrkpPp-13" value="+ getCorpList(): corp_list(dictionary, dart에 있는 회사 리스트)&lt;div&gt;+ getReportCode(corp_list : list): report_code(dictionary, 공시보고서 코드)&lt;/div&gt;&lt;div&gt;+ getReportURL(report_code : dictionary): report_url(dictionary, 공시보고서 링크)&lt;/div&gt;&lt;div&gt;+ getEveryReportData(report_url : dictionary) : report_data(dictionary, 보고서 내용)&lt;/div&gt;&lt;div&gt;+ getSelectiveReportData(report_url : dictionary, item_list : list) : report_data(dictionary, 보고서 내용)&lt;/div&gt;" style="text;strokeColor=none;fillColor=none;align=left;verticalAlign=top;spacingLeft=4;spacingRight=4;overflow=hidden;rotatable=0;points=[[0,0.5],[1,0.5]];portConstraint=eastwest;whiteSpace=wrap;html=1;" parent="lhYpRNcE0l-zWbSrkpPp-10" vertex="1">
          <mxGeometry y="58" width="550" height="92" as="geometry" />
        </mxCell>
        <mxCell id="lhYpRNcE0l-zWbSrkpPp-15" value="EDGAR" style="swimlane;fontStyle=1;align=center;verticalAlign=top;childLayout=stackLayout;horizontal=1;startSize=26;horizontalStack=0;resizeParent=1;resizeParentMax=0;resizeLast=0;collapsible=1;marginBottom=0;whiteSpace=wrap;html=1;" parent="1" vertex="1">
          <mxGeometry x="400" y="330" width="220" height="238" as="geometry" />
        </mxCell>
        <mxCell id="lhYpRNcE0l-zWbSrkpPp-16" value="+&amp;nbsp;config : dictionary&lt;div&gt;+&amp;nbsp;raw_filings_folder : String&lt;/div&gt;&lt;div&gt;+&amp;nbsp;indices_folder : String&lt;/div&gt;&lt;div&gt;+&amp;nbsp;filings_metadata_filepath : String&lt;/div&gt;&lt;div&gt;+ extracted_filings_folder : String&lt;/div&gt;&lt;div&gt;+ dataset_dir : String&lt;/div&gt;" style="text;strokeColor=none;fillColor=none;align=left;verticalAlign=top;spacingLeft=4;spacingRight=4;overflow=hidden;rotatable=0;points=[[0,0.5],[1,0.5]];portConstraint=eastwest;whiteSpace=wrap;html=1;" parent="lhYpRNcE0l-zWbSrkpPp-15" vertex="1">
          <mxGeometry y="26" width="220" height="104" as="geometry" />
        </mxCell>
        <mxCell id="lhYpRNcE0l-zWbSrkpPp-17" value="" style="line;strokeWidth=1;fillColor=none;align=left;verticalAlign=middle;spacingTop=-1;spacingLeft=3;spacingRight=3;rotatable=0;labelPosition=right;points=[];portConstraint=eastwest;strokeColor=inherit;" parent="lhYpRNcE0l-zWbSrkpPp-15" vertex="1">
          <mxGeometry y="130" width="220" height="8" as="geometry" />
        </mxCell>
        <mxCell id="lhYpRNcE0l-zWbSrkpPp-18" value="-&amp;nbsp;retryRequestsSession&lt;div&gt;-&amp;nbsp;__downloadIndices&lt;/div&gt;&lt;div&gt;-&amp;nbsp;__getIndicesInNeed&lt;/div&gt;&lt;div&gt;-&amp;nbsp;__crawlFromIndices&lt;/div&gt;&lt;div&gt;- __downloadHTML&lt;br&gt;&lt;/div&gt;&lt;div&gt;+&amp;nbsp;doCrawl&lt;/div&gt;&lt;div&gt;&lt;br&gt;&lt;/div&gt;&lt;div&gt;&lt;br&gt;&lt;/div&gt;&lt;div&gt;&lt;br&gt;&lt;/div&gt;" style="text;strokeColor=none;fillColor=none;align=left;verticalAlign=top;spacingLeft=4;spacingRight=4;overflow=hidden;rotatable=0;points=[[0,0.5],[1,0.5]];portConstraint=eastwest;whiteSpace=wrap;html=1;" parent="lhYpRNcE0l-zWbSrkpPp-15" vertex="1">
          <mxGeometry y="138" width="220" height="100" as="geometry" />
        </mxCell>
        <mxCell id="lhYpRNcE0l-zWbSrkpPp-19" value="CHAT_BOT" style="swimlane;fontStyle=1;align=center;verticalAlign=top;childLayout=stackLayout;horizontal=1;startSize=26;horizontalStack=0;resizeParent=1;resizeParentMax=0;resizeLast=0;collapsible=1;marginBottom=0;whiteSpace=wrap;html=1;" parent="1" vertex="1">
          <mxGeometry x="-40" y="520" width="420" height="148" as="geometry" />
        </mxCell>
        <mxCell id="lhYpRNcE0l-zWbSrkpPp-20" value="+ gpt_model_name : String&lt;div&gt;+ context : String&lt;/div&gt;&lt;div&gt;+ gpt_parameters : dictionary&amp;nbsp; ← ??&lt;/div&gt;" style="text;strokeColor=none;fillColor=none;align=left;verticalAlign=top;spacingLeft=4;spacingRight=4;overflow=hidden;rotatable=0;points=[[0,0.5],[1,0.5]];portConstraint=eastwest;whiteSpace=wrap;html=1;" parent="lhYpRNcE0l-zWbSrkpPp-19" vertex="1">
          <mxGeometry y="26" width="420" height="54" as="geometry" />
        </mxCell>
        <mxCell id="lhYpRNcE0l-zWbSrkpPp-21" value="" style="line;strokeWidth=1;fillColor=none;align=left;verticalAlign=middle;spacingTop=-1;spacingLeft=3;spacingRight=3;rotatable=0;labelPosition=right;points=[];portConstraint=eastwest;strokeColor=inherit;" parent="lhYpRNcE0l-zWbSrkpPp-19" vertex="1">
          <mxGeometry y="80" width="420" height="8" as="geometry" />
        </mxCell>
        <mxCell id="lhYpRNcE0l-zWbSrkpPp-22" value="+ chat(input : String): LLM_output(String, 사용자 질문 분석)&lt;div&gt;+ analyzeKeywords(LLM_output : String): keywords(dicitonary, 키워드)&lt;br&gt;&lt;div&gt;+ getOutput(keywords : dictionary): output(String, 예상질문과 RAG 후 답변)&lt;/div&gt;&lt;/div&gt;" style="text;strokeColor=none;fillColor=none;align=left;verticalAlign=top;spacingLeft=4;spacingRight=4;overflow=hidden;rotatable=0;points=[[0,0.5],[1,0.5]];portConstraint=eastwest;whiteSpace=wrap;html=1;" parent="lhYpRNcE0l-zWbSrkpPp-19" vertex="1">
          <mxGeometry y="88" width="420" height="60" as="geometry" />
        </mxCell>
        <mxCell id="lhYpRNcE0l-zWbSrkpPp-23" value="QnA" style="swimlane;fontStyle=1;align=center;verticalAlign=top;childLayout=stackLayout;horizontal=1;startSize=26;horizontalStack=0;resizeParent=1;resizeParentMax=0;resizeLast=0;collapsible=1;marginBottom=0;whiteSpace=wrap;html=1;" parent="1" vertex="1">
          <mxGeometry x="-40" y="750" width="380" height="100" as="geometry" />
        </mxCell>
        <mxCell id="lhYpRNcE0l-zWbSrkpPp-24" value="+ expected_quert_list : list" style="text;strokeColor=none;fillColor=none;align=left;verticalAlign=top;spacingLeft=4;spacingRight=4;overflow=hidden;rotatable=0;points=[[0,0.5],[1,0.5]];portConstraint=eastwest;whiteSpace=wrap;html=1;" parent="lhYpRNcE0l-zWbSrkpPp-23" vertex="1">
          <mxGeometry y="26" width="380" height="26" as="geometry" />
        </mxCell>
        <mxCell id="lhYpRNcE0l-zWbSrkpPp-25" value="" style="line;strokeWidth=1;fillColor=none;align=left;verticalAlign=middle;spacingTop=-1;spacingLeft=3;spacingRight=3;rotatable=0;labelPosition=right;points=[];portConstraint=eastwest;strokeColor=inherit;" parent="lhYpRNcE0l-zWbSrkpPp-23" vertex="1">
          <mxGeometry y="52" width="380" height="8" as="geometry" />
        </mxCell>
        <mxCell id="lhYpRNcE0l-zWbSrkpPp-26" value="&lt;div&gt;+ getAnswer(expected_query : String): answer(String, 예상 답변)&lt;/div&gt;+ query_embedding(answer : String): void" style="text;strokeColor=none;fillColor=none;align=left;verticalAlign=top;spacingLeft=4;spacingRight=4;overflow=hidden;rotatable=0;points=[[0,0.5],[1,0.5]];portConstraint=eastwest;whiteSpace=wrap;html=1;" parent="lhYpRNcE0l-zWbSrkpPp-23" vertex="1">
          <mxGeometry y="60" width="380" height="40" as="geometry" />
        </mxCell>
        <mxCell id="lhYpRNcE0l-zWbSrkpPp-31" value="&lt;b&gt;KNUTURN&lt;/b&gt;" style="swimlane;fontStyle=0;childLayout=stackLayout;horizontal=1;startSize=26;fillColor=none;horizontalStack=0;resizeParent=1;resizeParentMax=0;resizeLast=0;collapsible=1;marginBottom=0;whiteSpace=wrap;html=1;" parent="1" vertex="1">
          <mxGeometry x="-360" y="460" width="260" height="104" as="geometry" />
        </mxCell>
        <mxCell id="lhYpRNcE0l-zWbSrkpPp-32" value="+ db_path: String" style="text;strokeColor=none;fillColor=none;align=left;verticalAlign=top;spacingLeft=4;spacingRight=4;overflow=hidden;rotatable=0;points=[[0,0.5],[1,0.5]];portConstraint=eastwest;whiteSpace=wrap;html=1;" parent="lhYpRNcE0l-zWbSrkpPp-31" vertex="1">
          <mxGeometry y="26" width="260" height="26" as="geometry" />
        </mxCell>
        <mxCell id="lhYpRNcE0l-zWbSrkpPp-33" value="+ collection_name: String" style="text;strokeColor=none;fillColor=none;align=left;verticalAlign=top;spacingLeft=4;spacingRight=4;overflow=hidden;rotatable=0;points=[[0,0.5],[1,0.5]];portConstraint=eastwest;whiteSpace=wrap;html=1;" parent="lhYpRNcE0l-zWbSrkpPp-31" vertex="1">
          <mxGeometry y="52" width="260" height="26" as="geometry" />
        </mxCell>
        <mxCell id="lhYpRNcE0l-zWbSrkpPp-34" value="+ GPT_API_KEY: String" style="text;strokeColor=none;fillColor=none;align=left;verticalAlign=top;spacingLeft=4;spacingRight=4;overflow=hidden;rotatable=0;points=[[0,0.5],[1,0.5]];portConstraint=eastwest;whiteSpace=wrap;html=1;" parent="lhYpRNcE0l-zWbSrkpPp-31" vertex="1">
          <mxGeometry y="78" width="260" height="26" as="geometry" />
        </mxCell>
        <mxCell id="lhYpRNcE0l-zWbSrkpPp-39" value="" style="endArrow=classic;html=1;rounded=0;curved=0;exitX=1;exitY=0.5;exitDx=0;exitDy=0;entryX=0;entryY=0.5;entryDx=0;entryDy=0;" parent="1" source="lhYpRNcE0l-zWbSrkpPp-33" target="lhYpRNcE0l-zWbSrkpPp-20" edge="1">
          <mxGeometry width="50" height="50" relative="1" as="geometry">
            <mxPoint x="-110" y="535" as="sourcePoint" />
            <mxPoint x="-30" y="278" as="targetPoint" />
            <Array as="points">
              <mxPoint x="-70" y="525" />
              <mxPoint x="-70" y="573" />
            </Array>
          </mxGeometry>
        </mxCell>
        <mxCell id="lhYpRNcE0l-zWbSrkpPp-40" value="" style="endArrow=classic;html=1;rounded=0;curved=0;exitX=1;exitY=0.5;exitDx=0;exitDy=0;entryX=0;entryY=0.25;entryDx=0;entryDy=0;" parent="1" source="lhYpRNcE0l-zWbSrkpPp-33" target="lhYpRNcE0l-zWbSrkpPp-23" edge="1">
          <mxGeometry width="50" height="50" relative="1" as="geometry">
            <mxPoint x="-100" y="545" as="sourcePoint" />
            <mxPoint x="-20" y="288" as="targetPoint" />
            <Array as="points">
              <mxPoint x="-70" y="525" />
              <mxPoint x="-70" y="775" />
            </Array>
          </mxGeometry>
        </mxCell>
        <mxCell id="ye_NqIISfGuv27rsNgW7-1" value="EDGAR_CRAWLER" style="swimlane;fontStyle=1;align=center;verticalAlign=top;childLayout=stackLayout;horizontal=1;startSize=26;horizontalStack=0;resizeParent=1;resizeParentMax=0;resizeLast=0;collapsible=1;marginBottom=0;whiteSpace=wrap;html=1;" vertex="1" parent="1">
          <mxGeometry x="680" y="330" width="220" height="134" as="geometry" />
        </mxCell>
        <mxCell id="ye_NqIISfGuv27rsNgW7-3" value="" style="line;strokeWidth=1;fillColor=none;align=left;verticalAlign=middle;spacingTop=-1;spacingLeft=3;spacingRight=3;rotatable=0;labelPosition=right;points=[];portConstraint=eastwest;strokeColor=inherit;" vertex="1" parent="ye_NqIISfGuv27rsNgW7-1">
          <mxGeometry y="26" width="220" height="8" as="geometry" />
        </mxCell>
        <mxCell id="ye_NqIISfGuv27rsNgW7-4" value="-&amp;nbsp;retryRequestsSession&lt;div&gt;-&amp;nbsp;__downloadIndices&lt;/div&gt;&lt;div&gt;-&amp;nbsp;__getIndicesInNeed&lt;/div&gt;&lt;div&gt;-&amp;nbsp;__crawlFromIndices&lt;/div&gt;&lt;div&gt;- __downloadHTML&lt;br&gt;&lt;/div&gt;&lt;div&gt;+&amp;nbsp;doCrawl&lt;/div&gt;&lt;div&gt;&lt;br&gt;&lt;/div&gt;&lt;div&gt;&lt;br&gt;&lt;/div&gt;&lt;div&gt;doExtractFromRAWs&lt;br&gt;&lt;/div&gt;" style="text;strokeColor=none;fillColor=none;align=left;verticalAlign=top;spacingLeft=4;spacingRight=4;overflow=hidden;rotatable=0;points=[[0,0.5],[1,0.5]];portConstraint=eastwest;whiteSpace=wrap;html=1;" vertex="1" parent="ye_NqIISfGuv27rsNgW7-1">
          <mxGeometry y="34" width="220" height="100" as="geometry" />
        </mxCell>
        <mxCell id="ye_NqIISfGuv27rsNgW7-9" value="" style="endArrow=classic;html=1;rounded=0;exitX=1.005;exitY=0.422;exitDx=0;exitDy=0;exitPerimeter=0;entryX=0.003;entryY=0.361;entryDx=0;entryDy=0;entryPerimeter=0;" edge="1" parent="1" source="lhYpRNcE0l-zWbSrkpPp-16" target="ye_NqIISfGuv27rsNgW7-4">
          <mxGeometry width="50" height="50" relative="1" as="geometry">
            <mxPoint x="619.9999999999999" y="396.62600000000003" as="sourcePoint" />
            <mxPoint x="680.66" y="397.36999999999995" as="targetPoint" />
          </mxGeometry>
        </mxCell>
        <mxCell id="ye_NqIISfGuv27rsNgW7-10" value="" style="endArrow=classic;html=1;rounded=0;exitX=1.004;exitY=0.422;exitDx=0;exitDy=0;exitPerimeter=0;entryX=0.003;entryY=0.621;entryDx=0;entryDy=0;entryPerimeter=0;" edge="1" parent="1" source="lhYpRNcE0l-zWbSrkpPp-16" target="ye_NqIISfGuv27rsNgW7-16">
          <mxGeometry width="50" height="50" relative="1" as="geometry">
            <mxPoint x="633" y="410" as="sourcePoint" />
            <mxPoint x="679.56" y="708.1699999999998" as="targetPoint" />
            <Array as="points">
              <mxPoint x="650" y="400" />
              <mxPoint x="650" y="720" />
            </Array>
          </mxGeometry>
        </mxCell>
        <mxCell id="ye_NqIISfGuv27rsNgW7-13" value="EDGAR_CRAWLER" style="swimlane;fontStyle=1;align=center;verticalAlign=top;childLayout=stackLayout;horizontal=1;startSize=26;horizontalStack=0;resizeParent=1;resizeParentMax=0;resizeLast=0;collapsible=1;marginBottom=0;whiteSpace=wrap;html=1;" vertex="1" parent="1">
          <mxGeometry x="680" y="520" width="220" height="260" as="geometry" />
        </mxCell>
        <mxCell id="ye_NqIISfGuv27rsNgW7-14" value="&lt;div&gt;+ items_list : String&lt;/div&gt;&lt;div&gt;+ filings_metadata_df : String&lt;/div&gt;&lt;div&gt;+ items_to_extract : list&lt;/div&gt;&lt;div&gt;+ json_instance : dictionary&lt;/div&gt;" style="text;strokeColor=none;fillColor=none;align=left;verticalAlign=top;spacingLeft=4;spacingRight=4;overflow=hidden;rotatable=0;points=[[0,0.5],[1,0.5]];portConstraint=eastwest;whiteSpace=wrap;html=1;" vertex="1" parent="ye_NqIISfGuv27rsNgW7-13">
          <mxGeometry y="26" width="220" height="64" as="geometry" />
        </mxCell>
        <mxCell id="ye_NqIISfGuv27rsNgW7-15" value="" style="line;strokeWidth=1;fillColor=none;align=left;verticalAlign=middle;spacingTop=-1;spacingLeft=3;spacingRight=3;rotatable=0;labelPosition=right;points=[];portConstraint=eastwest;strokeColor=inherit;" vertex="1" parent="ye_NqIISfGuv27rsNgW7-13">
          <mxGeometry y="90" width="220" height="8" as="geometry" />
        </mxCell>
        <mxCell id="ye_NqIISfGuv27rsNgW7-16" value="&lt;div&gt;+&amp;nbsp;__is_json_key_present&lt;/div&gt;&lt;div&gt;+&amp;nbsp;__remove_html_tables&lt;/div&gt;&lt;div&gt;+&amp;nbsp;__parse_item&lt;/div&gt;&lt;div&gt;+&amp;nbsp;__extract_items&lt;/div&gt;&lt;div&gt;+&amp;nbsp;doExtractFromRAWs&lt;/div&gt;&lt;div&gt;&lt;u&gt;get_item_section&lt;/u&gt;&lt;br&gt;&lt;/div&gt;&lt;div&gt;&lt;u&gt;get_last_item_section&lt;br&gt;&lt;/u&gt;&lt;/div&gt;&lt;div&gt;&lt;u&gt;strip_html&lt;br&gt;&lt;/u&gt;&lt;/div&gt;&lt;div&gt;&lt;u&gt;remove_multiple_lines&lt;br&gt;&lt;/u&gt;&lt;/div&gt;&lt;div&gt;&lt;u&gt;clean_text&lt;br&gt;&lt;/u&gt;&lt;/div&gt;" style="text;strokeColor=none;fillColor=none;align=left;verticalAlign=top;spacingLeft=4;spacingRight=4;overflow=hidden;rotatable=0;points=[[0,0.5],[1,0.5]];portConstraint=eastwest;whiteSpace=wrap;html=1;" vertex="1" parent="ye_NqIISfGuv27rsNgW7-13">
          <mxGeometry y="98" width="220" height="162" as="geometry" />
        </mxCell>
        <mxCell id="ye_NqIISfGuv27rsNgW7-17" value="" style="endArrow=none;html=1;rounded=0;entryX=-0.003;entryY=0.286;entryDx=0;entryDy=0;entryPerimeter=0;" edge="1" parent="1" target="lhYpRNcE0l-zWbSrkpPp-13">
          <mxGeometry width="50" height="50" relative="1" as="geometry">
            <mxPoint x="320" y="270" as="sourcePoint" />
            <mxPoint x="400" y="320" as="targetPoint" />
            <Array as="points">
              <mxPoint x="370" y="270" />
              <mxPoint x="370" y="244" />
            </Array>
          </mxGeometry>
        </mxCell>
        <mxCell id="ye_NqIISfGuv27rsNgW7-18" value="" style="endArrow=none;html=1;rounded=0;entryX=-0.002;entryY=0.904;entryDx=0;entryDy=0;entryPerimeter=0;" edge="1" parent="1" target="lhYpRNcE0l-zWbSrkpPp-16">
          <mxGeometry width="50" height="50" relative="1" as="geometry">
            <mxPoint x="320" y="270" as="sourcePoint" />
            <mxPoint x="408" y="254" as="targetPoint" />
            <Array as="points">
              <mxPoint x="370" y="270" />
              <mxPoint x="370" y="350" />
              <mxPoint x="370" y="450" />
            </Array>
          </mxGeometry>
        </mxCell>
      </root>
    </mxGraphModel>
  </diagram>
</mxfile>
